<svg width="52" height="40" viewBox="0 0 52 40" fill="none" xmlns="http://www.w3.org/2000/svg">
<path d="M25.5391 10.7207L9.36725 24.0801V38.4062C9.36725 39.1973 9.98248 39.8125 10.7735 39.8125H20.6172C21.3204 39.8125 21.9356 39.1973 21.9356 38.4062V29.9688C21.9356 29.2656 22.6387 28.5625 23.3419 28.5625H28.9669C29.7579 28.5625 30.3731 29.2656 30.3731 29.9688V38.4062C30.3731 39.1973 31.0762 39.8125 31.7794 39.8125H41.711C42.4141 39.8125 43.1172 39.1973 43.1172 38.4062V23.9922L26.8575 10.7207C26.6817 10.5449 26.418 10.457 26.2422 10.457C25.9786 10.457 25.7149 10.5449 25.5391 10.7207ZM51.1153 19.7734L43.8204 13.709V1.58008C43.8204 0.964844 43.293 0.525391 42.7657 0.525391H37.8438C37.2286 0.525391 36.7891 0.964844 36.7891 1.58008V7.9082L28.879 1.4043C28.1758 0.876953 27.209 0.525391 26.2422 0.525391C25.1876 0.525391 24.2208 0.876953 23.5176 1.4043L1.28131 19.7734C1.01764 19.9492 0.841858 20.3008 0.841858 20.5645C0.841858 20.8281 1.01764 21.0918 1.10553 21.2676L3.39069 23.9922C3.56647 24.2559 3.83014 24.3438 4.1817 24.3438C4.44537 24.3438 4.70905 24.2559 4.88483 24.0801L25.5391 7.11719C25.7149 6.94141 25.9786 6.85352 26.2422 6.85352C26.418 6.85352 26.6817 6.94141 26.8575 7.11719L47.5118 24.0801C47.6876 24.2559 47.9512 24.3438 48.2149 24.3438C48.5665 24.3438 48.8301 24.2559 49.0059 23.9922L51.2911 21.2676C51.4669 21.0918 51.5547 20.8281 51.5547 20.5645C51.5547 20.3008 51.379 19.9492 51.1153 19.7734Z" fill="#757575"/>
</svg>
