<svg width="40" height="36" viewBox="0 0 40 36" fill="none" xmlns="http://www.w3.org/2000/svg">
<path d="M1.71875 7.22656H38.2812C38.9844 7.22656 39.6875 6.61133 39.6875 5.82031V2.30469C39.6875 1.60156 38.9844 0.898438 38.2812 0.898438H1.71875C0.927734 0.898438 0.3125 1.60156 0.3125 2.30469V5.82031C0.3125 6.61133 0.927734 7.22656 1.71875 7.22656ZM1.71875 21.2891H38.2812C38.9844 21.2891 39.6875 20.6738 39.6875 19.8828V16.3672C39.6875 15.6641 38.9844 14.9609 38.2812 14.9609H1.71875C0.927734 14.9609 0.3125 15.6641 0.3125 16.3672V19.8828C0.3125 20.6738 0.927734 21.2891 1.71875 21.2891ZM1.71875 35.3516H38.2812C38.9844 35.3516 39.6875 34.7363 39.6875 33.9453V30.4297C39.6875 29.7266 38.9844 29.0234 38.2812 29.0234H1.71875C0.927734 29.0234 0.3125 29.7266 0.3125 30.4297V33.9453C0.3125 34.7363 0.927734 35.3516 1.71875 35.3516Z" fill="white"/>
</svg>
